# xmcd
#
# Track frame offsets: 
#        150
#        15720
#        30508
#        47436
#        65106
#        81047
#        99676
#        115862
#        129798
#        146621
#
# Disc length: 2220 seconds
#
# Revision: 1
# Processed by: cddbd v1.5.2PL0 Copyright (c) Steve Scherf et al.
# Submitted via: ExactAudioCopy v1.0b3
#
DISCID=7c08aa0a
DTITLE=Bartok - Few Lazy Words
DYEAR=2003
DGENRE=Indie
TTITLE0=In Cold Blood
TTITLE1=Devil's Hands
TTITLE2=Traffic Jam
TTITLE3=Walking My Blues Away
TTITLE4=Late Fragment
TTITLE5=Double Spoiling
TTITLE6=The Girl I Used To Know
TTITLE7=Broken Lines
TTITLE8=Sure
TTITLE9=Few Lazy Words
EXTD=
EXTT0=In Cold Blood
EXTT1=
EXTT2=
EXTT3=
EXTT4=
EXTT5=
EXTT6=
EXTT7=
EXTT8=
EXTT9=
PLAYORDER=
